<svg width="307" height="372" viewBox="0 0 307 372" fill="none" xmlns="http://www.w3.org/2000/svg">
<path d="M154.5 163.625C154.5 151.558 149.706 139.985 141.173 131.452C132.64 122.919 121.067 118.125 109 118.125H40.75V288.75H120.375C129.426 288.75 138.105 292.345 144.505 298.745C150.905 305.145 154.5 313.824 154.5 322.875M154.5 163.625V322.875M154.5 163.625C154.5 151.558 159.294 139.985 167.827 131.452C176.36 122.919 187.933 118.125 200 118.125H268.25V288.75H188.625C179.574 288.75 170.895 292.345 164.495 298.745C158.095 305.145 154.5 313.824 154.5 322.875" stroke="#1E1E1E" stroke-width="4" stroke-linecap="round" stroke-linejoin="round"/>
<path d="M154.5 170.625C154.5 158.558 149.355 146.985 140.197 138.452C131.039 129.919 118.618 125.125 105.667 125.125H32.4167V295.75H117.875C127.589 295.75 136.904 299.345 143.773 305.745C150.641 312.145 154.5 320.824 154.5 329.875M154.5 170.625V329.875M154.5 170.625C154.5 158.558 159.645 146.985 168.803 138.452C177.961 129.919 190.382 125.125 203.333 125.125H276.583V295.75H191.125C181.411 295.75 172.096 299.345 165.227 305.745C158.359 312.145 154.5 320.824 154.5 329.875" stroke="#1E1E1E" stroke-width="4" stroke-linecap="round" stroke-linejoin="round"/>
<path d="M153.5 178.625C153.5 166.558 148.109 154.985 138.514 146.452C128.918 137.919 115.904 133.125 102.333 133.125H25.5833V303.75H115.125C125.303 303.75 135.064 307.345 142.26 313.745C149.457 320.145 153.5 328.824 153.5 337.875M153.5 178.625V337.875M153.5 178.625C153.5 166.558 158.891 154.985 168.486 146.452C178.082 137.919 191.096 133.125 204.667 133.125H281.417V303.75H191.875C181.697 303.75 171.936 307.345 164.74 313.745C157.543 320.145 153.5 328.824 153.5 337.875" stroke="#1E1E1E" stroke-width="4" stroke-linecap="round" stroke-linejoin="round"/>
<path d="M154 9.83333L169.192 40.6117L203.167 45.5775L178.583 69.5217L184.385 103.348L154 87.3692L123.615 103.348L129.417 69.5217L104.833 45.5775L138.807 40.6117L154 9.83333Z" stroke="#877474" stroke-width="4" stroke-linecap="round" stroke-linejoin="round"/>
<path d="M45.4977 167.371C46.0122 171.487 54.0341 167.588 55.2943 165.66C58.0283 161.479 54.8167 153.065 53.9726 158.974C52.3119 170.598 77.0556 166.582 69.2895 156.874C69.1162 156.658 65.651 164.618 71.3888 165.894C76.3505 166.996 80.4857 165.946 80.4857 160.373C80.4857 154.991 76.5016 163.172 83.2848 163.172C86.2911 163.172 89.2975 163.172 92.3039 163.172C95.3417 163.172 94.065 161.492 91.6819 161.773C88.0458 162.2 93.2152 164.572 94.7919 164.572C97.6705 164.572 100.019 164.74 102.567 163.172C109.141 159.126 102.252 155.506 101.556 160.373C100.451 168.113 106.014 168.77 112.364 168.77C118.414 168.77 117.648 159.652 114.852 160.451C112.768 161.046 114.466 165.514 116.174 165.894C118.18 166.339 121.176 166.2 123.171 165.894C131.926 164.547 123.871 160.708 123.871 165.971C123.871 169.963 133.936 174.479 134.989 170.792C135.764 168.081 142.065 174.578 142.065 177.167" stroke="#877474" stroke-width="3" stroke-linecap="round"/>
<path d="M49.6962 199.56C54.357 199.56 56.7759 198.797 55.2166 193.34C54.5899 191.146 53.8948 196.807 53.8948 197.46C53.8948 200.536 55.9754 200.959 58.7154 200.959C64.0647 200.959 66.4905 201.211 66.4905 195.361C66.4905 190.279 63.1895 197.884 70.378 198.16C73.0198 198.262 82.2069 193.962 76.9869 193.962C72.6063 193.962 77.2433 201.659 82.585 198.782C83.8466 198.103 88.3885 196.042 88.8051 194.584C89.385 192.554 87.4833 192.201 87.4833 194.661C87.4833 200.461 96.6333 200.68 100.779 199.404C108.134 197.141 101.675 190.613 101.479 193.962C101.291 197.15 108.316 199.909 110.964 197.849C111.735 197.25 111.92 199.204 113.452 199.482C116.303 200 119.57 199.56 122.471 199.56C126.593 199.56 129.181 193.98 124.493 192.64C121.05 191.656 121.848 202.323 123.871 203.447C128.952 206.27 133.667 203.165 133.667 198.16C133.667 194.752 133.045 197.009 133.979 197.849C135.385 199.115 139.34 196.736 138.177 199.56C136.534 203.55 140.65 205.15 143.464 206.557" stroke="#877474" stroke-width="3" stroke-linecap="round"/>
<path d="M51.0958 233.148C53.4721 233.148 58.7123 234.212 59.4151 231.049C60.0748 228.081 60.5694 222.144 56.0718 223.429C50.5942 224.994 61.1174 231.344 62.9139 231.671C66.517 232.326 72.1722 225.875 68.512 224.829C65.6421 224.009 65.4221 232.48 68.6675 233.071C72.371 233.744 79.0862 233.575 79.0862 228.483C79.0862 226.35 79.8391 233.635 81.8852 234.237C84.2366 234.928 88.7645 235.132 90.9044 233.77C95.215 231.027 93.1788 226.86 93.1591 226.928C91.6517 232.204 100.983 232.197 104.278 232.837C107.606 233.485 114.877 227.715 109.876 225.84C107.443 224.927 108.749 230.739 109.254 231.749C110.512 234.265 112.621 234.854 115.163 235.636C119.011 236.821 125.116 233.285 125.27 229.261C125.419 225.403 130.851 228.95 134.756 228.95C140.768 228.95 132.448 225.708 132.268 228.95C131.719 238.823 136.705 237.347 144.864 237.347" stroke="#877474" stroke-width="3" stroke-linecap="round"/>
<path d="M55.2944 261.139C61.2821 267.875 49.9076 271.728 49.6963 268.136C49.163 259.07 60.2277 271.755 56.0719 269.38C50.2768 266.069 62.9706 265.337 63.6915 265.337C65.5612 265.337 69.1523 264.842 70.3781 266.737C71.1007 267.854 70.7675 269.536 69.2896 269.536C67.0737 269.536 67.2766 265.43 69.6006 265.337C71.2887 265.27 85.4005 265.782 83.7513 267.981C83.6955 268.055 80.1243 266.339 85.4618 264.56C89.5813 263.187 95.1012 261.139 99.457 261.139C103.242 261.139 107.497 261.715 110.342 264.56C111.314 265.532 109.188 264.74 108.787 263.938C107.761 261.886 112.177 262.538 112.986 262.538C119.48 262.538 125.41 262.492 131.568 263.86C134.093 264.421 136.542 263.058 137.866 266.037C139.156 268.939 140.466 272.735 143.464 273.734" stroke="#877474" stroke-width="3" stroke-linecap="round"/>
<path d="M167.256 172.969C162.301 172.659 165.118 167.371 168.656 167.371C171.617 167.371 174.37 172.813 172.154 172.813C171.426 172.813 171.85 164.717 175.342 169.081C177.39 171.641 172.854 175.561 172.854 169.47C172.854 165.014 177.342 165.971 180.551 165.971C185.355 165.971 185.736 166.709 185.45 171.569C185.224 175.403 179.941 167.436 183.584 163.794C185.507 161.871 198.045 157.001 198.045 163.172C198.045 168.267 192.208 163.478 196.957 160.373C199.493 158.715 210.775 156.757 209.164 162.395C207.708 167.489 204.528 165.011 205.043 160.373C205.479 156.454 219.038 155.906 219.038 159.673C219.038 161.477 217.93 162.096 217.95 162.084C220.473 160.478 227.793 161.574 230.701 161.85C234.682 162.23 231.549 165.03 229.146 164.261C227.665 163.787 226.314 160.208 228.057 159.285C229.506 158.518 231.969 158.974 233.578 158.974C234.767 158.974 233.525 156.084 234.589 155.553C239.467 153.114 242.83 155.749 242.83 160.373" stroke="#877474" stroke-width="3" stroke-linecap="round"/>
<path d="M170.055 195.361C172.69 197.996 173.712 201.371 174.176 205.08C174.418 207.015 171.875 211.763 170.055 208.579C166.202 201.837 170.58 198.998 176.897 203.059C180.657 205.476 176.585 202.454 179.307 200.337C181.52 198.616 190.852 198.673 192.992 200.337C195.272 202.111 188.898 203.987 189.726 200.26C190.441 197.043 196.392 197.99 198.745 198.238C204.376 198.831 199.378 202.568 198.356 199.249C196.417 192.945 203.965 193.962 207.531 193.962C208.808 193.962 212.476 193.325 213.285 194.739C213.684 195.438 212.985 197.405 212.352 196.139C209.981 191.397 216.447 189.826 219.66 189.763C226.113 189.637 236.979 190.404 240.653 188.675C243.185 187.483 248.424 188.208 251.227 188.364C253.674 188.5 252.627 193.67 252.627 195.361" stroke="#877474" stroke-width="3" stroke-linecap="round"/>
<path d="M164.457 238.746C166.549 238.746 170.488 237.935 172.077 239.524C174.021 241.468 170.202 238.732 170.055 235.947C169.711 229.405 176.549 236.716 177.13 233.226C177.819 229.096 187.953 230.286 190.426 230.66C197.355 231.71 193.532 236.667 192.525 231.127C191.708 226.63 198.66 226.233 201.622 226.151C207.405 225.99 201.388 226.229 202.555 225.062C203.721 223.897 208.361 224.751 209.941 224.751C213.264 224.751 212.389 223.561 214.84 222.263C216.543 221.361 220.674 221.705 222.459 222.03C225.552 222.592 225.54 228.935 226.114 226.928C226.819 224.46 239.953 223.352 242.13 223.352C246.096 223.352 257.992 223.352 254.026 223.352" stroke="#877474" stroke-width="3" stroke-linecap="round"/>
<path d="M167.256 269.536C166.363 268.531 166.253 267.927 165.857 266.737" stroke="#877474" stroke-width="3" stroke-linecap="round"/>
<path d="M167.256 269.536C167.256 270.782 171.47 278.489 167.956 275.756C163.862 272.572 166.594 268.096 169.744 271.246C170.484 271.986 169.372 274.978 170.833 274.978C172.566 274.978 174.352 273.734 176.353 273.734C179.657 273.734 179.833 272.19 183.351 270.236C189.218 266.976 186.849 273.464 186.849 270.935C186.849 265.84 197.131 269.536 190.348 269.536C188.301 269.536 188.136 268.648 188.249 266.737C188.383 264.453 192.547 265.278 194.158 265.337C199.835 265.548 205.167 265.337 211.263 265.337C211.363 265.337 215.578 262.674 216.161 264.715C216.917 267.36 214.84 264.357 214.84 262.538C214.84 259.582 218.542 258.321 220.127 261.139C221.195 263.038 218.569 256.342 223.937 260.517C227.853 263.563 225.845 261.139 232.178 261.139C232.977 261.139 230.234 260.538 230.234 259.739C230.234 257.316 235.377 258.34 236.921 258.34C241.015 258.34 242.496 259.739 246.329 259.739C248.94 259.739 259.895 264.187 259.313 262.538C257.677 257.901 261.024 254.882 261.024 259.739" stroke="#877474" stroke-width="3" stroke-linecap="round"/>
</svg>
